Oswald--700.ufo
<glyph name="parenright" format="1">
  <advance width="668"/>
  <unicode hex="0029"/>
  <outline>
    <contour>
      <point x="72" y="-370" type="line"/>
      <point x="524" y="-373"/>
      <point x="564" y="122"/>
      <point x="564" y="647" type="curve" smooth="yes"/>
      <point x="564" y="1208"/>
      <point x="524" y="1679"/>
      <point x="72" y="1677" type="curve"/>
      <point x="72" y="1444" type="line"/>
      <point x="227" y="1444"/>
      <point x="256" y="1154"/>
      <point x="256" y="647" type="curve" smooth="yes"/>
      <point x="256" y="134"/>
      <point x="218" y="-136"/>
      <point x="72" y="-136" type="curve"/>
    </contour>
  </outline>
</glyph>
<glyph name="plus" format="1">
  <advance width="921"/>
  <unicode hex="002B"/>
  <outline>
    <contour>
      <point x="348" y="423" type="line"/>
      <point x="569" y="423" type="line"/>
      <point x="569" y="751" type="line"/>
      <point x="867" y="751" type="line"/>
      <point x="867" y="948" type="line"/>
      <point x="569" y="948" type="line"/>
      <point x="569" y="1269" type="line"/>
      <point x="348" y="1269" type="line"/>
      <point x="348" y="948" type="line"/>
      <point x="53" y="948" type="line"/>
      <point x="53" y="751" type="line"/>
      <point x="348" y="751" type="line"/>
    </contour>
  </outline>
</glyph>
<glyph name="two" format="1">
  <advance width="1085"/>
  <unicode hex="0032"/>
  <outline>
    <contour>
      <point x="111" y="0" type="line"/>
      <point x="977" y="0" type="line"/>
      <point x="977" y="269" type="line"/>
      <point x="496" y="269" type="line"/>
      <point x="799" y="722" type="line" smooth="yes"/>
      <point x="908" y="882"/>
      <point x="1023" y="1032"/>
      <point x="1023" y="1244" type="curve" smooth="yes"/>
      <point x="1023" y="1519"/>
      <point x="871" y="1684"/>
      <point x="572" y="1684" type="curve" smooth="yes"/>
      <point x="240" y="1684"/>
      <point x="110" y="1462"/>
      <point x="110" y="1169" type="curve"/>
      <point x="110" y="1083" type="line"/>
      <point x="442" y="1083" type="line"/>
      <point x="442" y="1163" type="line" smooth="yes"/>
      <point x="442" y="1310"/>
      <point x="478" y="1381"/>
      <point x="556" y="1391" type="curve" smooth="yes"/>
      <point x="633" y="1404"/>
      <point x="684" y="1354"/>
      <point x="684" y="1248" type="curve" smooth="yes"/>
      <point x="684" y="1103"/>
      <point x="580" y="971"/>
      <point x="504" y="853" type="curve" smooth="yes"/>
      <point x="111" y="242" type="line"/>
    </contour>
  </outline>
</glyph>
<glyph name="four" format="1">
  <advance width="1094"/>
  <unicode hex="0034"/>
  <outline>
    <contour>
      <point x="572" y="0" type="line"/>
      <point x="879" y="0" type="line"/>
      <point x="879" y="381" type="line"/>
      <point x="1038" y="381" type="line"/>
      <point x="1038" y="630" type="line"/>
      <point x="879" y="630" type="line"/>
      <point x="879" y="1658" type="line"/>
      <point x="497" y="1658" type="line"/>
      <point x="68" y="638" type="line"/>
      <point x="68" y="381" type="line"/>
      <point x="572" y="381" type="line"/>
    </contour>
    <contour>
      <point x="326" y="630" type="line"/>
      <point x="572" y="1322" type="line"/>
      <point x="572" y="630" type="line"/>
    </contour>
  </outline>
</glyph>
<glyph name="seven" format="1">
  <advance width="1026"/>
  <unicode hex="0037"/>
  <outline>
    <contour>
      <point x="222" y="0" type="line"/>
      <point x="556" y="0" type="line"/>
      <point x="915" y="1425" type="line"/>
      <point x="915" y="1658" type="line"/>
      <point x="132" y="1658" type="line"/>
      <point x="132" y="1399" type="line"/>
      <point x="580" y="1399" type="line"/>
    </contour>
  </outline>
</glyph>
<glyph name="nine" format="1">
  <advance width="1092"/>
  <unicode hex="0039"/>
  <outline>
    <contour>
      <point x="539" y="-24" type="curve" smooth="yes"/>
      <point x="907" y="-24"/>
      <point x="998" y="218"/>
      <point x="998" y="543" type="curve" smooth="yes"/>
      <point x="998" y="1153" type="line" smooth="yes"/>
      <point x="998" y="1468"/>
      <point x="866" y="1681"/>
      <point x="540" y="1681" type="curve" smooth="yes"/>
      <point x="208" y="1681"/>
      <point x="88" y="1459"/>
      <point x="88" y="1113" type="curve" smooth="yes"/>
      <point x="88" y="846"/>
      <point x="181" y="613"/>
      <point x="446" y="619" type="curve" smooth="yes"/>
      <point x="538" y="621"/>
      <point x="613" y="654"/>
      <point x="647" y="713" type="curve"/>
      <point x="647" y="566" type="line" smooth="yes"/>
      <point x="647" y="310"/>
      <point x="636" y="235"/>
      <point x="542" y="235" type="curve" smooth="yes"/>
      <point x="449" y="235"/>
      <point x="439" y="299"/>
      <point x="439" y="431" type="curve"/>
      <point x="116" y="431" type="line"/>
      <point x="116" y="429"/>
      <point x="116" y="405"/>
      <point x="116" y="404" type="curve" smooth="yes"/>
      <point x="118" y="128"/>
      <point x="223" y="-24"/>
    </contour>
    <contour>
      <point x="544" y="880" type="curve" smooth="yes"/>
      <point x="437" y="880"/>
      <point x="437" y="992"/>
      <point x="437" y="1149" type="curve" smooth="yes"/>
      <point x="437" y="1329"/>
      <point x="448" y="1428"/>
      <point x="540" y="1428" type="curve" smooth="yes"/>
      <point x="634" y="1428"/>
      <point x="647" y="1325"/>
      <point x="647" y="1216" type="curve" smooth="yes"/>
      <point x="647" y="950" type="line"/>
      <point x="631" y="919"/>
      <point x="598" y="880"/>
    </contour>
  </outline>
</glyph>
<glyph name="less" format="1">
  <advance width="815"/>
  <unicode hex="003C"/>
  <outline>
    <contour>
      <point x="698" y="198" type="line"/>
      <point x="698" y="489" type="line"/>
      <point x="304" y="772" type="line"/>
      <point x="698" y="1052" type="line"/>
      <point x="698" y="1345" type="line"/>
      <point x="64" y="901" type="line"/>
      <point x="64" y="640" type="line"/>
    </contour>
  </outline>
</glyph>
<glyph name="A" format="1">
  <advance width="1127"/>
  <unicode hex="0041"/>
  <outline>
    <contour>
      <point x="43" y="0" type="line"/>
      <point x="390" y="0" type="line"/>
      <point x="446" y="352" type="line"/>
      <point x="688" y="352" type="line"/>
      <point x="745" y="0" type="line"/>
      <point x="1083" y="0" type="line"/>
      <point x="771" y="1658" type="line"/>
      <point x="357" y="1658" type="line"/>
    </contour>
    <contour>
      <point x="478" y="571" type="line"/>
      <point x="566" y="1213" type="line"/>
      <point x="655" y="571" type="line"/>
    </contour>
  </outline>
</glyph>
<glyph name="E" format="1">
  <advance width="915"/>
  <unicode hex="0045"/>
  <outline>
    <contour>
      <point x="122" y="0" type="line"/>
      <point x="871" y="0" type="line"/>
      <point x="871" y="248" type="line"/>
      <point x="488" y="248" type="line"/>
      <point x="488" y="743" type="line"/>
      <point x="777" y="743" type="line"/>
      <point x="777" y="998" type="line"/>
      <point x="488" y="998" type="line"/>
      <point x="488" y="1408" type="line"/>
      <point x="867" y="1408" type="line"/>
      <point x="867" y="1658" type="line"/>
      <point x="122" y="1658" type="line"/>
    </contour>
  </outline>
</glyph>
<glyph name="F" format="1">
  <advance width="887"/>
  <unicode hex="0046"/>
  <outline>
    <contour>
      <point x="122" y="0" type="line"/>
      <point x="488" y="0" type="line"/>
      <point x="488" y="736" type="line"/>
      <point x="791" y="736" type="line"/>
      <point x="791" y="992" type="line"/>
      <point x="488" y="992" type="line"/>
      <point x="488" y="1409" type="line"/>
      <point x="840" y="1409" type="line"/>
      <point x="840" y="1658" type="line"/>
      <point x="122" y="1658" type="line"/>
    </contour>
  </outline>
</glyph>
<glyph name="S" format="1">
  <advance width="1052"/>
  <unicode hex="0053"/>
  <outline>
    <contour>
      <point x="562" y="-23" type="curve" smooth="yes"/>
      <point x="827" y="-23"/>
      <point x="997" y="158"/>
      <point x="997" y="394" type="curve" smooth="yes"/>
      <point x="997" y="623"/>
      <point x="880" y="765"/>
      <point x="740" y="890" type="curve" smooth="yes"/>
      <point x="599" y="1014" type="line" smooth="yes"/>
      <point x="520" y="1085"/>
      <point x="441" y="1152"/>
      <point x="441" y="1284" type="curve" smooth="yes"/>
      <point x="441" y="1342"/>
      <point x="471" y="1411"/>
      <point x="540" y="1413" type="curve" smooth="yes"/>
      <point x="636" y="1417"/>
      <point x="645" y="1315"/>
      <point x="648" y="1170" type="curve"/>
      <point x="965" y="1211" type="line"/>
      <point x="957" y="1406"/>
      <point x="906" y="1682"/>
      <point x="551" y="1681" type="curve" smooth="yes"/>
      <point x="266" y="1680"/>
      <point x="87" y="1526"/>
      <point x="87" y="1247" type="curve" smooth="yes"/>
      <point x="87" y="1033"/>
      <point x="185" y="922"/>
      <point x="309" y="815" type="curve" smooth="yes"/>
      <point x="456" y="688" type="line" smooth="yes"/>
      <point x="567" y="592"/>
      <point x="637" y="514"/>
      <point x="637" y="374" type="curve" smooth="yes"/>
      <point x="637" y="318"/>
      <point x="620" y="254"/>
      <point x="544" y="254" type="curve" smooth="yes"/>
      <point x="452" y="254"/>
      <point x="403" y="339"/>
      <point x="400" y="551" type="curve"/>
      <point x="86" y="503" type="line"/>
      <point x="98" y="134"/>
      <point x="249" y="-23"/>
    </contour>
  </outline>
</glyph>
<glyph name="h" format="1">
  <advance width="1043"/>
  <unicode hex="0068"/>
  <outline>
    <contour>
      <point x="106" y="0" type="line"/>
      <point x="440" y="0" type="line"/>
      <point x="440" y="923" type="line"/>
      <point x="479" y="950"/>
      <point x="517" y="966"/>
      <point x="546" y="966" type="curve" smooth="yes"/>
      <point x="599" y="968"/>
      <point x="612" y="935"/>
      <point x="612" y="879" type="curve" smooth="yes"/>
      <point x="612" y="0" type="line"/>
      <point x="946" y="0" type="line"/>
      <point x="946" y="929" type="line" smooth="yes"/>
      <point x="946" y="1083"/>
      <point x="874" y="1204"/>
      <point x="729" y="1204" type="curve" smooth="yes"/>
      <point x="622" y="1204"/>
      <point x="528" y="1166"/>
      <point x="440" y="1078" type="curve"/>
      <point x="440" y="1658" type="line"/>
      <point x="106" y="1658" type="line"/>
    </contour>
  </outline>
</glyph>
<glyph name="m" format="1">
  <advance width="1542"/>
  <unicode hex="006D"/>
  <outline>
    <contour>
      <point x="104" y="0" type="line"/>
      <point x="431" y="0" type="line"/>
      <point x="431" y="932" type="line"/>
      <point x="471" y="960"/>
      <point x="513" y="976"/>
      <point x="543" y="977" type="curve" smooth="yes"/>
      <point x="590" y="979"/>
      <point x="614" y="951"/>
      <point x="614" y="886" type="curve" smooth="yes"/>
      <point x="614" y="0" type="line"/>
      <point x="939" y="0" type="line"/>
      <point x="939" y="920" type="line" smooth="yes"/>
      <point x="939" y="925"/>
      <point x="939" y="929"/>
      <point x="939" y="934" type="curve"/>
      <point x="975" y="961"/>
      <point x="1019" y="976"/>
      <point x="1048" y="977" type="curve" smooth="yes"/>
      <point x="1096" y="979"/>
      <point x="1118" y="951"/>
      <point x="1118" y="886" type="curve" smooth="yes"/>
      <point x="1118" y="0" type="line"/>
      <point x="1446" y="0" type="line"/>
      <point x="1446" y="920" type="line" smooth="yes"/>
      <point x="1446" y="1100"/>
      <point x="1355" y="1206"/>
      <point x="1218" y="1206" type="curve" smooth="yes"/>
      <point x="1111" y="1206"/>
      <point x="1008" y="1170"/>
      <point x="915" y="1066" type="curve"/>
      <point x="879" y="1157"/>
      <point x="806" y="1206"/>
      <point x="713" y="1206" type="curve" smooth="yes"/>
      <point x="614" y="1206"/>
      <point x="518" y="1174"/>
      <point x="431" y="1088" type="curve"/>
      <point x="431" y="1184" type="line"/>
      <point x="104" y="1184" type="line"/>
    </contour>
  </outline>
</glyph>
<glyph name="o" format="1">
  <advance width="989"/>
  <unicode hex="006F"/>
  <outline>
    <contour>
      <point x="493" y="203" type="curve" smooth="yes"/>
      <point x="429" y="203"/>
      <point x="410" y="259"/>
      <point x="410" y="345" type="curve" smooth="yes"/>
      <point x="410" y="838" type="line" smooth="yes"/>
      <point x="410" y="925"/>
      <point x="429" y="981"/>
      <point x="493" y="981" type="curve" smooth="yes"/>
      <point x="560" y="981"/>
      <point x="578" y="927"/>
      <point x="578" y="838" type="curve" smooth="yes"/>
      <point x="578" y="345" type="line" smooth="yes"/>
      <point x="578" y="257"/>
      <point x="560" y="203"/>
    </contour>
    <contour>
      <point x="493" y="-21" type="curve" smooth="yes"/>
      <point x="746" y="-21"/>
      <point x="908" y="111"/>
      <point x="908" y="368" type="curve" smooth="yes"/>
      <point x="908" y="815" type="line" smooth="yes"/>
      <point x="908" y="1072"/>
      <point x="746" y="1204"/>
      <point x="493" y="1204" type="curve" smooth="yes"/>
      <point x="239" y="1204"/>
      <point x="81" y="1072"/>
      <point x="81" y="815" type="curve" smooth="yes"/>
      <point x="81" y="368" type="line" smooth="yes"/>
      <point x="81" y="112"/>
      <point x="239" y="-21"/>
    </contour>
  </outline>
</glyph>
<glyph name="r" format="1">
  <advance width="760"/>
  <unicode hex="0072"/>
  <outline>
    <contour>
      <point x="108" y="0" type="line"/>
      <point x="442" y="0" type="line"/>
      <point x="442" y="759" type="line"/>
      <point x="505" y="852"/>
      <point x="576" y="897"/>
      <point x="671" y="902" type="curve" smooth="yes"/>
      <point x="690" y="902"/>
      <point x="710" y="899"/>
      <point x="726" y="895" type="curve"/>
      <point x="726" y="1191" type="line"/>
      <point x="708" y="1196"/>
      <point x="694" y="1199"/>
      <point x="679" y="1199" type="curve" smooth="yes"/>
      <point x="591" y="1199"/>
      <point x="513" y="1125"/>
      <point x="442" y="987" type="curve"/>
      <point x="442" y="1184" type="line"/>
      <point x="108" y="1184" type="line"/>
    </contour>
  </outline>
</glyph>
<glyph name="y" format="1">
  <advance width="915"/>
  <unicode hex="0079"/>
  <outline>
    <contour>
      <point x="136" y="-343" type="line"/>
      <point x="182" y="-343" type="line"/>
      <point x="385" y="-345"/>
      <point x="566" y="-285"/>
      <point x="615" y="-64" type="curve" smooth="yes"/>
      <point x="894" y="1184" type="line"/>
      <point x="579" y="1184" type="line"/>
      <point x="467" y="501" type="line"/>
      <point x="320" y="1184" type="line"/>
      <point x="5" y="1184" type="line"/>
      <point x="27" y="1091"/>
      <point x="259" y="282"/>
      <point x="281" y="189" type="curve" smooth="yes"/>
      <point x="293" y="147"/>
      <point x="321" y="40"/>
      <point x="325" y="3" type="curve" smooth="yes"/>
      <point x="332" y="-98"/>
      <point x="269" y="-112"/>
      <point x="136" y="-112" type="curve"/>
    </contour>
  </outline>
</glyph>
<glyph name="braceleft" format="1">
  <advance width="767"/>
  <unicode hex="007B"/>
  <outline>
    <contour>
      <point x="703" y="-399" type="curve"/>
      <point x="703" y="-175" type="line"/>
      <point x="560" y="-175"/>
      <point x="540" y="-147"/>
      <point x="540" y="57" type="curve" smooth="yes"/>
      <point x="540" y="247" type="line" smooth="yes"/>
      <point x="540" y="479"/>
      <point x="503" y="615"/>
      <point x="363" y="648" type="curve"/>
      <point x="503" y="680"/>
      <point x="540" y="816"/>
      <point x="540" y="1048" type="curve" smooth="yes"/>
      <point x="540" y="1238" type="line" smooth="yes"/>
      <point x="540" y="1442"/>
      <point x="560" y="1470"/>
      <point x="703" y="1470" type="curve"/>
      <point x="703" y="1694" type="line"/>
      <point x="270" y="1694"/>
      <point x="230" y="1581"/>
      <point x="230" y="1256" type="curve" smooth="yes"/>
      <point x="230" y="1087" type="line" smooth="yes"/>
      <point x="230" y="797"/>
      <point x="224" y="767"/>
      <point x="97" y="767" type="curve"/>
      <point x="97" y="528" type="line"/>
      <point x="224" y="528"/>
      <point x="230" y="498"/>
      <point x="230" y="208" type="curve" smooth="yes"/>
      <point x="230" y="39" type="line" smooth="yes"/>
      <point x="230" y="-286"/>
      <point x="270" y="-399"/>
    </contour>
  </outline>
</glyph>
<glyph name="guillemotleft" format="1">
  <advance width="1000"/>
  <unicode hex="00AB"/>
  <outline>
    <contour>
      <point x="474" y="70" type="line"/>
      <point x="474" y="394" type="line"/>
      <point x="271" y="609" type="line"/>
      <point x="474" y="825" type="line"/>
      <point x="474" y="1149" type="line"/>
      <point x="74" y="668" type="line"/>
      <point x="74" y="551" type="line"/>
    </contour>
    <contour>
      <point x="920" y="70" type="line"/>
      <point x="920" y="394" type="line"/>
      <point x="716" y="609" type="line"/>
      <point x="920" y="825" type="line"/>
      <point x="920" y="1149" type="line"/>
      <point x="519" y="668" type="line"/>
      <point x="519" y="551" type="line"/>
    </contour>
  </outline>
</glyph>
<glyph name="periodcentered" format="1">
  <advance width="457"/>
  <unicode hex="00B7"/>
  <outline>
    <contour>
      <point x="72" y="616" type="line"/>
      <point x="387" y="616" type="line"/>
      <point x="387" y="925" type="line"/>
      <point x="72" y="925" type="line"/>
    </contour>
  </outline>
</glyph>
<glyph name="guillemotright" format="1">
  <advance width="1016"/>
  <unicode hex="00BB"/>
  <outline>
    <contour>
      <point x="92" y="70" type="line"/>
      <point x="499" y="551" type="line"/>
      <point x="499" y="668" type="line"/>
      <point x="92" y="1149" type="line"/>
      <point x="92" y="825" type="line"/>
      <point x="302" y="610" type="line"/>
      <point x="92" y="394" type="line"/>
    </contour>
    <contour>
      <point x="538" y="70" type="line"/>
      <point x="944" y="551" type="line"/>
      <point x="944" y="668" type="line"/>
      <point x="538" y="1149" type="line"/>
      <point x="538" y="825" type="line"/>
      <point x="747" y="610" type="line"/>
      <point x="538" y="394" type="line"/>
    </contour>
  </outline>
</glyph>
<glyph name="Thorn" format="1">
  <advance width="1147"/>
  <unicode hex="00DE"/>
  <outline>
    <contour>
      <point x="106" y="0" type="line"/>
      <point x="472" y="0" type="line"/>
      <point x="472" y="477" type="line"/>
      <point x="611" y="478" type="line" smooth="yes"/>
      <point x="954" y="480"/>
      <point x="1118" y="581"/>
      <point x="1118" y="974" type="curve" smooth="yes"/>
      <point x="1118" y="1306"/>
      <point x="958" y="1437"/>
      <point x="631" y="1437" type="curve" smooth="yes"/>
      <point x="472" y="1437" type="line"/>
      <point x="472" y="1658" type="line"/>
      <point x="106" y="1658" type="line"/>
    </contour>
    <contour>
      <point x="472" y="739" type="line"/>
      <point x="472" y="1172" type="line"/>
      <point x="596" y="1172" type="line" smooth="yes"/>
      <point x="734" y="1172"/>
      <point x="782" y="1106"/>
      <point x="782" y="958" type="curve" smooth="yes"/>
      <point x="782" y="797"/>
      <point x="728" y="739"/>
      <point x="585" y="739" type="curve" smooth="yes"/>
    </contour>
  </outline>
</glyph>
<glyph name="kgreenlandic" format="1">
  <advance width="1037"/>
  <unicode hex="0138"/>
  <outline>
    <contour>
      <point x="102" y="0" type="line"/>
      <point x="436" y="0" type="line"/>
      <point x="436" y="466" type="line"/>
      <point x="491" y="546" type="line"/>
      <point x="675" y="0" type="line"/>
      <point x="1027" y="0" type="line"/>
      <point x="781" y="659" type="line"/>
      <point x="1022" y="1184" type="line"/>
      <point x="663" y="1184" type="line"/>
      <point x="436" y="694" type="line"/>
      <point x="436" y="1184" type="line"/>
      <point x="102" y="1184" type="line"/>
    </contour>
  </outline>
</glyph>
<glyph name="acutecomb" format="1">
  <advance width="468"/>
  <unicode hex="0301"/>
  <outline>
    <contour>
      <point x="61" y="1246" type="line"/>
      <point x="270" y="1246" type="line"/>
      <point x="529" y="1658" type="line"/>
      <point x="187" y="1658" type="line"/>
    </contour>
  </outline>
</glyph>
<glyph name="pi" format="1">
  <advance width="1211"/>
  <unicode hex="03C0"/>
  <outline>
    <contour>
      <point x="501" y="965" type="line"/>
      <point x="671" y="965" type="line"/>
      <point x="671" y="288" type="line" smooth="yes"/>
      <point x="671" y="81"/>
      <point x="753" y="-20"/>
      <point x="1121" y="-20" type="curve"/>
      <point x="1135" y="214" type="line"/>
      <point x="1014" y="214"/>
      <point x="1005" y="247"/>
      <point x="1005" y="422" type="curve" smooth="yes"/>
      <point x="1005" y="965" type="line"/>
      <point x="1146" y="965" type="line"/>
      <point x="1146" y="1184" type="line"/>
      <point x="40" y="1184" type="line"/>
      <point x="40" y="965" type="line"/>
      <point x="167" y="965" type="line"/>
      <point x="167" y="0" type="line"/>
      <point x="501" y="0" type="line"/>
    </contour>
  </outline>
</glyph>
<glyph name="afii10059" format="1">
  <advance width="1708"/>
  <unicode hex="040A"/>
  <outline>
    <contour>
      <point x="1119" y="0" type="line"/>
      <point x="1415" y="0"/>
      <point x="1646" y="77"/>
      <point x="1646" y="481" type="curve" smooth="yes"/>
      <point x="1646" y="816"/>
      <point x="1468" y="958"/>
      <point x="1151" y="958" type="curve" smooth="yes"/>
      <point x="1096" y="958" type="line"/>
      <point x="1096" y="1660" type="line"/>
      <point x="729" y="1660" type="line"/>
      <point x="729" y="981" type="line"/>
      <point x="496" y="981" type="line"/>
      <point x="496" y="1660" type="line"/>
      <point x="129" y="1660" type="line"/>
      <point x="129" y="1" type="line"/>
      <point x="496" y="1" type="line"/>
      <point x="496" y="703" type="line"/>
      <point x="729" y="703" type="line"/>
      <point x="729" y="1" type="line"/>
    </contour>
    <contour>
      <point x="1096" y="242" type="line"/>
      <point x="1096" y="705" type="line"/>
      <point x="1117" y="705" type="line" smooth="yes"/>
      <point x="1267" y="705"/>
      <point x="1303" y="613"/>
      <point x="1306" y="488" type="curve" smooth="yes"/>
      <point x="1311" y="315"/>
      <point x="1260" y="242"/>
      <point x="1121" y="242" type="curve" smooth="yes"/>
    </contour>
  </outline>
</glyph>
<glyph name="afii10017" format="1">
  <advance width="1092"/>
  <unicode hex="0410"/>
  <outline>
    <contour>
      <point x="26" y="0" type="line"/>
      <point x="372" y="0" type="line"/>
      <point x="428" y="352" type="line"/>
      <point x="671" y="352" type="line"/>
      <point x="728" y="0" type="line"/>
      <point x="1066" y="0" type="line"/>
      <point x="753" y="1658" type="line"/>
      <point x="340" y="1658" type="line"/>
    </contour>
    <contour>
      <point x="460" y="571" type="line"/>
      <point x="548" y="1213" type="line"/>
      <point x="637" y="571" type="line"/>
    </contour>
  </outline>
</glyph>
<glyph name="afii10032" format="1">
  <advance width="1193"/>
  <unicode hex="041E"/>
  <outline>
    <contour>
      <point x="595" y="236" type="curve" smooth="yes"/>
      <point x="480" y="236"/>
      <point x="472" y="336"/>
      <point x="472" y="433" type="curve" smooth="yes"/>
      <point x="472" y="1228" type="line" smooth="yes"/>
      <point x="472" y="1325"/>
      <point x="480" y="1422"/>
      <point x="595" y="1422" type="curve" smooth="yes"/>
      <point x="710" y="1422"/>
      <point x="721" y="1325"/>
      <point x="721" y="1228" type="curve" smooth="yes"/>
      <point x="721" y="433" type="line" smooth="yes"/>
      <point x="721" y="336"/>
      <point x="710" y="236"/>
    </contour>
    <contour>
      <point x="595" y="-23" type="curve" smooth="yes"/>
      <point x="968" y="-23"/>
      <point x="1097" y="181"/>
      <point x="1097" y="524" type="curve" smooth="yes"/>
      <point x="1097" y="1136" type="line" smooth="yes"/>
      <point x="1097" y="1479"/>
      <point x="968" y="1681"/>
      <point x="595" y="1681" type="curve" smooth="yes"/>
      <point x="221" y="1681"/>
      <point x="96" y="1481"/>
      <point x="96" y="1136" type="curve" smooth="yes"/>
      <point x="96" y="524" type="line" smooth="yes"/>
      <point x="96" y="180"/>
      <point x="221" y="-23"/>
    </contour>
  </outline>
</glyph>
<glyph name="afii10035" format="1">
  <advance width="1151"/>
  <unicode hex="0421"/>
  <outline>
    <contour>
      <point x="594" y="-23" type="curve" smooth="yes"/>
      <point x="965" y="-23"/>
      <point x="1071" y="188"/>
      <point x="1071" y="472" type="curve" smooth="yes"/>
      <point x="1071" y="615" type="line"/>
      <point x="713" y="615" type="line"/>
      <point x="713" y="441" type="line" smooth="yes"/>
      <point x="713" y="340"/>
      <point x="710" y="236"/>
      <point x="594" y="236" type="curve" smooth="yes"/>
      <point x="488" y="236"/>
      <point x="469" y="324"/>
      <point x="469" y="441" type="curve" smooth="yes"/>
      <point x="469" y="1214" type="line" smooth="yes"/>
      <point x="469" y="1318"/>
      <point x="477" y="1422"/>
      <point x="594" y="1422" type="curve" smooth="yes"/>
      <point x="713" y="1422"/>
      <point x="713" y="1320"/>
      <point x="713" y="1223" type="curve" smooth="yes"/>
      <point x="713" y="1056" type="line"/>
      <point x="1071" y="1056" type="line"/>
      <point x="1071" y="1202" type="line" smooth="yes"/>
      <point x="1071" y="1485"/>
      <point x="961" y="1681"/>
      <point x="594" y="1681" type="curve" smooth="yes"/>
      <point x="215" y="1681"/>
      <point x="96" y="1470"/>
      <point x="96" y="1123" type="curve" smooth="yes"/>
      <point x="96" y="532" type="line" smooth="yes"/>
      <point x="96" y="194"/>
      <point x="215" y="-23"/>
    </contour>
  </outline>
</glyph>
<glyph name="afii10048" format="1">
  <advance width="1687"/>
  <unicode hex="042E"/>
  <outline>
    <contour>
      <point x="1129" y="-23" type="curve" smooth="yes"/>
      <point x="1481" y="-23"/>
      <point x="1588" y="201"/>
      <point x="1588" y="545" type="curve" smooth="yes"/>
      <point x="1588" y="1116" type="line" smooth="yes"/>
      <point x="1588" y="1459"/>
      <point x="1481" y="1681"/>
      <point x="1129" y="1681" type="curve" smooth="yes"/>
      <point x="776" y="1681"/>
      <point x="670" y="1460"/>
      <point x="670" y="1116" type="curve" smooth="yes"/>
      <point x="670" y="975" type="line"/>
      <point x="491" y="975" type="line"/>
      <point x="491" y="1658" type="line"/>
      <point x="129" y="1658" type="line"/>
      <point x="129" y="0" type="line"/>
      <point x="491" y="0" type="line"/>
      <point x="491" y="705" type="line"/>
      <point x="670" y="705" type="line"/>
      <point x="670" y="545" type="line" smooth="yes"/>
      <point x="670" y="200"/>
      <point x="776" y="-23"/>
    </contour>
    <contour>
      <point x="1129" y="236" type="curve" smooth="yes"/>
      <point x="1020" y="236"/>
      <point x="1012" y="336"/>
      <point x="1012" y="433" type="curve" smooth="yes"/>
      <point x="1012" y="1228" type="line" smooth="yes"/>
      <point x="1012" y="1325"/>
      <point x="1020" y="1422"/>
      <point x="1129" y="1422" type="curve" smooth="yes"/>
      <point x="1237" y="1422"/>
      <point x="1245" y="1325"/>
      <point x="1245" y="1228" type="curve" smooth="yes"/>
      <point x="1245" y="433" type="line" smooth="yes"/>
      <point x="1245" y="336"/>
      <point x="1237" y="236"/>
    </contour>
  </outline>
</glyph>
<glyph name="afii10078" format="1">
  <advance width="1191"/>
  <unicode hex="043C"/>
  <outline>
    <contour>
      <point x="103" y="0" type="line"/>
      <point x="364" y="0" type="line"/>
      <point x="364" y="619" type="line"/>
      <point x="547" y="182" type="line"/>
      <point x="645" y="182" type="line"/>
      <point x="828" y="618" type="line"/>
      <point x="828" y="0" type="line"/>
      <point x="1089" y="0" type="line"/>
      <point x="1085" y="1184" type="line"/>
      <point x="838" y="1184" type="line"/>
      <point x="596" y="618" type="line"/>
      <point x="353" y="1184" type="line"/>
      <point x="106" y="1184" type="line"/>
    </contour>
  </outline>
</glyph>
<glyph name="afii10094" format="1">
  <advance width="1005"/>
  <unicode hex="044C"/>
  <outline>
    <contour>
      <point x="104" y="0" type="line"/>
      <point x="448" y="0" type="line" smooth="yes"/>
      <point x="805" y="0"/>
      <point x="951" y="95"/>
      <point x="951" y="347" type="curve" smooth="yes"/>
      <point x="951" y="631"/>
      <point x="775" y="706"/>
      <point x="448" y="707" type="curve" smooth="yes"/>
      <point x="446" y="707"/>
      <point x="441" y="707"/>
      <point x="438" y="707" type="curve"/>
      <point x="438" y="1184" type="line"/>
      <point x="104" y="1184" type="line"/>
    </contour>
    <contour>
      <point x="438" y="191" type="curve"/>
      <point x="438" y="510" type="line"/>
      <point x="441" y="510"/>
      <point x="444" y="510"/>
      <point x="448" y="510" type="curve" smooth="yes"/>
      <point x="591" y="508"/>
      <point x="648" y="475"/>
      <point x="648" y="345" type="curve" smooth="yes"/>
      <point x="648" y="226"/>
      <point x="593" y="192"/>
      <point x="444" y="191" type="curve" smooth="yes"/>
      <point x="443" y="191"/>
      <point x="440" y="191"/>
    </contour>
  </outline>
</glyph>
<glyph name="afii10105" format="1">
  <advance width="526"/>
  <unicode hex="0458"/>
  <outline>
    <contour>
      <point x="-23" y="-339" type="line"/>
      <point x="31" y="-355"/>
      <point x="91" y="-366"/>
      <point x="154" y="-366" type="curve" smooth="yes"/>
      <point x="356" y="-366"/>
      <point x="460" y="-235"/>
      <point x="460" y="-48" type="curve" smooth="yes"/>
      <point x="460" y="1184" type="line"/>
      <point x="126" y="1184" type="line"/>
      <point x="126" y="-8" type="line" smooth="yes"/>
      <point x="126" y="-80"/>
      <point x="91" y="-108"/>
      <point x="36" y="-108" type="curve" smooth="yes"/>
      <point x="17" y="-108"/>
      <point x="-5" y="-103"/>
      <point x="-23" y="-100" type="curve"/>
    </contour>
    <contour>
      <point x="125" y="1383" type="line"/>
      <point x="461" y="1383" type="line"/>
      <point x="461" y="1618" type="line"/>
      <point x="125" y="1618" type="line"/>
    </contour>
  </outline>
</glyph>
<glyph name="endash" format="1">
  <advance width="1024"/>
  <unicode hex="2013"/>
  <outline>
    <contour>
      <point x="1" y="629" type="line"/>
      <point x="1023" y="629" type="line"/>
      <point x="1023" y="858" type="line"/>
      <point x="1" y="858" type="line"/>
    </contour>
  </outline>
</glyph>
<glyph name="daggerdbl" format="1">
  <advance width="840"/>
  <unicode hex="2021"/>
  <outline>
    <contour>
      <point x="289" y="0" type="line"/>
      <point x="557" y="0" type="line"/>
      <point x="557" y="491" type="line"/>
      <point x="781" y="491" type="line"/>
      <point x="781" y="674" type="line"/>
      <point x="557" y="674" type="line"/>
      <point x="557" y="991" type="line"/>
      <point x="781" y="991" type="line"/>
      <point x="781" y="1185" type="line"/>
      <point x="557" y="1185" type="line"/>
      <point x="557" y="1656" type="line"/>
      <point x="289" y="1656" type="line"/>
      <point x="289" y="1185" type="line"/>
      <point x="61" y="1185" type="line"/>
      <point x="61" y="991" type="line"/>
      <point x="289" y="991" type="line"/>
      <point x="289" y="674" type="line"/>
      <point x="61" y="674" type="line"/>
      <point x="61" y="491" type="line"/>
      <point x="289" y="491" type="line"/>
    </contour>
  </outline>
</glyph>
<glyph name="ellipsis" format="1">
  <advance width="1356"/>
  <unicode hex="2026"/>
  <outline>
    <contour>
      <point x="60" y="0" type="line"/>
      <point x="377" y="0" type="line"/>
      <point x="377" y="314" type="line"/>
      <point x="60" y="314" type="line"/>
    </contour>
    <contour>
      <point x="516" y="0" type="line"/>
      <point x="833" y="0" type="line"/>
      <point x="833" y="314" type="line"/>
      <point x="516" y="314" type="line"/>
    </contour>
    <contour>
      <point x="979" y="1" type="line"/>
      <point x="1296" y="1" type="line"/>
      <point x="1296" y="315" type="line"/>
      <point x="979" y="315" type="line"/>
    </contour>
  </outline>
</glyph>
<glyph name="trademark" format="1">
  <advance width="1775"/>
  <unicode hex="2122"/>
  <outline>
    <contour>
      <point x="802" y="656" type="line"/>
      <point x="990" y="656" type="line"/>
      <point x="990" y="1225" type="line"/>
      <point x="1164" y="656" type="line"/>
      <point x="1266" y="656" type="line"/>
      <point x="1434" y="1221" type="line"/>
      <point x="1434" y="656" type="line"/>
      <point x="1624" y="656" type="line"/>
      <point x="1624" y="1658" type="line"/>
      <point x="1382" y="1658" type="line"/>
      <point x="1210" y="1048" type="line"/>
      <point x="1042" y="1658" type="line"/>
      <point x="802" y="1658" type="line"/>
    </contour>
    <contour>
      <point x="314" y="656" type="line"/>
      <point x="536" y="656" type="line"/>
      <point x="536" y="1466" type="line"/>
      <point x="722" y="1466" type="line"/>
      <point x="722" y="1658" type="line"/>
      <point x="121" y="1658" type="line"/>
      <point x="121" y="1466" type="line"/>
      <point x="314" y="1466" type="line"/>
    </contour>
  </outline>
</glyph>
<glyph name="product" format="1">
  <advance width="1248"/>
  <unicode hex="220F"/>
  <outline>
    <contour>
      <point x="106" y="-390" type="line"/>
      <point x="431" y="-390" type="line"/>
      <point x="431" y="1395" type="line"/>
      <point x="817" y="1395" type="line"/>
      <point x="817" y="-390" type="line"/>
      <point x="1142" y="-390" type="line"/>
      <point x="1142" y="1658" type="line"/>
      <point x="106" y="1658" type="line"/>
    </contour>
  </outline>
</glyph>
<glyph name="radical" format="1">
  <advance width="1185"/>
  <unicode hex="221A"/>
  <outline>
    <contour>
      <point x="483" y="0" type="line"/>
      <point x="874" y="0" type="line"/>
      <point x="1161" y="1658" type="line"/>
      <point x="827" y="1658" type="line"/>
      <point x="737" y="934" type="line"/>
      <point x="737" y="934"/>
      <point x="681" y="453"/>
      <point x="681" y="453" type="curve"/>
      <point x="616" y="934" type="line"/>
      <point x="575" y="1184" type="line"/>
      <point x="49" y="1184" type="line"/>
      <point x="49" y="974" type="line"/>
      <point x="304" y="974" type="line"/>
    </contour>
  </outline>
</glyph>
<glyph name="integral" format="1">
  <advance width="701"/>
  <unicode hex="222B"/>
  <outline>
    <contour>
      <point x="191" y="-390" type="curve" smooth="yes"/>
      <point x="478" y="-390"/>
      <point x="516" y="-254"/>
      <point x="516" y="-43" type="curve" smooth="yes"/>
      <point x="516" y="1339" type="line" smooth="yes"/>
      <point x="516" y="1403"/>
      <point x="545" y="1431"/>
      <point x="596" y="1431" type="curve" smooth="yes"/>
      <point x="620" y="1431"/>
      <point x="647" y="1424"/>
      <point x="667" y="1422" type="curve"/>
      <point x="667" y="1670" type="line"/>
      <point x="605" y="1677"/>
      <point x="559" y="1680"/>
      <point x="508" y="1680" type="curve" smooth="yes"/>
      <point x="221" y="1680"/>
      <point x="182" y="1543"/>
      <point x="182" y="1334" type="curve" smooth="yes"/>
      <point x="182" y="-49" type="line" smooth="yes"/>
      <point x="182" y="-113"/>
      <point x="153" y="-141"/>
      <point x="102" y="-141" type="curve" smooth="yes"/>
      <point x="79" y="-141"/>
      <point x="51" y="-135"/>
      <point x="32" y="-131" type="curve"/>
      <point x="32" y="-379" type="line"/>
      <point x="93" y="-386"/>
      <point x="140" y="-390"/>
    </contour>
  </outline>
</glyph>
<glyph name="uniFB01" format="1">
  <advance width="1130"/>
  <unicode hex="FB01"/>
  <outline>
    <contour>
      <point x="143" y="0" type="line"/>
      <point x="477" y="0" type="line"/>
      <point x="477" y="957" type="line"/>
      <point x="695" y="957" type="line"/>
      <point x="695" y="0" type="line"/>
      <point x="1026" y="0" type="line"/>
      <point x="1026" y="1184" type="line"/>
      <point x="477" y="1184" type="line"/>
      <point x="477" y="1282" type="line" smooth="yes"/>
      <point x="477" y="1359"/>
      <point x="505" y="1382"/>
      <point x="555" y="1382" type="curve" smooth="yes"/>
      <point x="570" y="1382"/>
      <point x="586" y="1380"/>
      <point x="603" y="1377" type="curve"/>
      <point x="603" y="1607" type="line"/>
      <point x="550" y="1615"/>
      <point x="503" y="1619"/>
      <point x="460" y="1619" type="curve" smooth="yes"/>
      <point x="213" y="1619"/>
      <point x="143" y="1481"/>
      <point x="143" y="1267" type="curve" smooth="yes"/>
      <point x="143" y="1184" type="line"/>
      <point x="30" y="1184" type="line"/>
      <point x="30" y="957" type="line"/>
      <point x="143" y="957" type="line"/>
    </contour>
    <contour>
      <point x="716" y="1383" type="line"/>
      <point x="1027" y="1383" type="line"/>
      <point x="1027" y="1618" type="line"/>
      <point x="716" y="1618" type="line"/>
    </contour>
  </outline>
</glyph>
<glyph name="uniFB02" format="1">
  <advance width="1132"/>
  <unicode hex="FB02"/>
  <outline>
    <contour>
      <point x="469" y="949" type="line"/>
      <point x="596" y="949" type="line"/>
      <point x="596" y="1184" type="line"/>
      <point x="469" y="1184" type="line"/>
      <point x="469" y="1184"/>
      <point x="469" y="1266"/>
      <point x="469" y="1266" type="curve" smooth="yes"/>
      <point x="469" y="1357"/>
      <point x="478" y="1428"/>
      <point x="636" y="1428" type="curve" smooth="yes"/>
      <point x="657" y="1428"/>
      <point x="681" y="1427"/>
      <point x="707" y="1424" type="curve"/>
      <point x="707" y="0" type="line"/>
      <point x="1042" y="0" type="line"/>
      <point x="1042" y="1607" type="line"/>
      <point x="865" y="1639"/>
      <point x="722" y="1653"/>
      <point x="607" y="1653" type="curve" smooth="yes"/>
      <point x="163" y="1653"/>
      <point x="136" y="1446"/>
      <point x="136" y="1267" type="curve" smooth="yes"/>
      <point x="136" y="1184" type="line"/>
      <point x="22" y="1184" type="line"/>
      <point x="22" y="949" type="line"/>
      <point x="136" y="949" type="line"/>
      <point x="136" y="0" type="line"/>
      <point x="469" y="0" type="line"/>
    </contour>
  </outline>
</glyph>
